<svg xmlns="http://www.w3.org/2000/svg" width="440" height="231" fill="none"><g opacity=".1"><path stroke="#fff" stroke-linecap="round" stroke-linejoin="round" stroke-width="18" d="m91.71-19.96 36.246 67.862M76.579 32.299 144.44-3.947"/><path fill="#fff" d="M177.202-149.509c.876-5.732 6.233-9.67 11.965-8.794s9.67 6.233 8.794 11.965zM291.27 154.673c-.691 5.758-5.918 9.866-11.676 9.175l-93.827-11.255c-5.758-.691-9.865-5.918-9.175-11.676.691-5.758 5.918-9.866 11.676-9.175l83.402 10.005 10.005-83.402c.691-5.758 5.918-9.865 11.676-9.175s9.865 5.918 9.175 11.676zm-93.309-301.011c-9.006 58.952-12.932 97.045-1.85 137.673 11.142 40.848 37.786 85.346 92.99 155.6l-16.512 12.975C217.16 89.37 188.18 42.058 175.852-3.138c-12.388-45.415-7.629-87.598 1.35-146.371zM138.697-173.665c4.127-4.074 10.775-4.031 14.849.096s4.031 10.774-.096 14.848zM34.385 140.346c-3.994 4.205-10.64 4.376-14.845.382L-48.98 75.65c-4.204-3.994-4.376-10.64-.382-14.845 3.994-4.204 10.64-4.376 14.844-.382l60.907 57.848 57.848-60.907c3.993-4.205 10.64-4.376 14.844-.382 4.205 3.993 4.376 10.64.382 14.844zM153.45-158.721c-42.72 42.172-72.181 70.925-91.042 110.91-18.772 39.798-27.43 91.766-25.14 180.656l-20.993.541C13.954 43.275 22.57-12.58 43.415-56.77c20.755-44.002 53.25-75.403 95.282-116.895z"/><circle cx="31.168" cy="31.168" r="29.847" fill="#fff" stroke="#fff" stroke-width="2.641" transform="scale(1 -1)rotate(-16.893 -579.692 -1027.2)"/></g></svg>