<svg width="440" height="231" viewBox="0 0 440 231" fill="none" xmlns="http://www.w3.org/2000/svg">
<g opacity="0.1">
<path d="M91.7108 -19.9604L127.956 47.9022" stroke="white" stroke-width="18" stroke-linecap="round" stroke-linejoin="round"/>
<path d="M76.5787 32.299L144.441 -3.94669" stroke="white" stroke-width="18" stroke-linecap="round" stroke-linejoin="round"/>
<path d="M177.202 -149.509C178.078 -155.241 183.435 -159.179 189.167 -158.303C194.9 -157.427 198.837 -152.07 197.961 -146.338L177.202 -149.509ZM291.27 154.673C290.579 160.431 285.352 164.539 279.594 163.848L185.767 152.593C180.009 151.902 175.902 146.675 176.592 140.917C177.283 135.159 182.51 131.051 188.268 131.742L271.67 141.747L281.675 58.3448C282.366 52.5871 287.593 48.4795 293.351 49.1702C299.109 49.8609 303.216 55.0883 302.526 60.846L291.27 154.673ZM197.961 -146.338C188.955 -87.386 185.029 -49.293 196.111 -8.66453C207.253 32.1825 233.897 76.6811 289.101 146.935L272.589 159.91C217.16 89.3705 188.18 42.0581 175.852 -3.13837C163.464 -48.5534 168.223 -90.7365 177.202 -149.509L197.961 -146.338Z" fill="white"/>
<path d="M138.697 -173.665C142.824 -177.739 149.472 -177.696 153.546 -173.569C157.62 -169.443 157.577 -162.795 153.45 -158.721L138.697 -173.665ZM34.3847 140.346C30.3912 144.551 23.7451 144.722 19.5404 140.728L-48.9797 75.6497C-53.1844 71.6562 -53.3556 65.0101 -49.3621 60.8054C-45.3685 56.6007 -38.7225 56.4295 -34.5178 60.423L26.389 118.271L84.2368 57.364C88.2303 53.1593 94.8764 52.9881 99.0811 56.9817C103.286 60.9752 103.457 67.6212 99.4635 71.826L34.3847 140.346ZM153.45 -158.721C110.73 -116.549 81.2687 -87.7962 62.4082 -47.811C43.636 -8.01293 34.9782 43.9548 37.2679 132.845L16.2749 133.386C13.9537 43.2745 22.5713 -12.58 43.415 -56.7698C64.1704 -100.772 96.6652 -132.173 138.697 -173.665L153.45 -158.721Z" fill="white"/>
<circle cx="31.1676" cy="31.1676" r="29.847" transform="matrix(0.956848 0.290588 0.290588 -0.956848 273.477 212.777)" fill="white" stroke="white" stroke-width="2.64124"/>
</g>
</svg>
