<svg xmlns="http://www.w3.org/2000/svg" width="106" height="27" fill="none"><path fill="#3F75FF" d="M46.636 5.448q0-1.44.876-2.256t2.484-.816q2.556 0 3.228 2.04.096.3-.204.408l-.492.168q-.168.06-.264.024-.084-.048-.144-.216-.228-.684-.732-1.008-.504-.336-1.392-.336-1.068 0-1.632.516T47.8 5.436v2.76q0 .936.564 1.464.576.516 1.632.516.9 0 1.404-.336t.732-1.032q.06-.18.144-.216.096-.048.264.012l.492.18q.312.096.204.408-.672 2.064-3.24 2.064-1.608 0-2.484-.816t-.876-2.256zM58.02 2.304q.588 0 .9-.144.288-.144.408.18l.132.372q.084.264-.18.396-.372.192-1.236.192h-.408q-1.332 0-1.812.516-.48.504-.48 1.836v.228q.576-.864 1.932-.864 1.176 0 1.824.636.66.636.66 1.764v1.452q0 1.128-.696 1.764-.684.624-2.016.624-1.308 0-2.004-.624-.696-.636-.696-1.764V5.94q0-1.944.732-2.784.732-.852 2.544-.852zm.66 5.112q0-.684-.42-1.056-.408-.372-1.212-.372-.732 0-1.164.36-.42.348-.456.78v1.728q0 .684.408 1.056.42.372 1.212.372.804 0 1.212-.372.42-.372.42-1.056zm2.169-.408q0-1.08.708-1.692.72-.612 1.98-.612 1.284 0 1.992.612t.708 1.692v1.956q0 1.068-.708 1.68t-1.992.612q-1.26 0-1.98-.612-.708-.612-.708-1.68zm4.32-.012q0-.624-.432-.972t-1.2-.348q-.756 0-1.188.348t-.432.972v1.968q0 .624.432.972t1.188.348q.768 0 1.2-.348t.432-.972zm2.82-1.944q.9-.348 2.208-.348 2.508 0 2.508 2.412v1.692q0 2.448-2.556 2.448-.624 0-1.56-.324v2.496q0 .168-.06.228t-.228.06h-.504q-.156 0-.216-.072-.06-.06-.06-.216V5.736q0-.3.084-.432.096-.132.384-.252m3.636 2.1q0-1.464-1.584-1.464-.66 0-1.272.18a.4.4 0 0 0-.156.096.4.4 0 0 0-.024.156v3.84q.9.312 1.476.312 1.56 0 1.56-1.5zm7.597 3.588q.108.18.06.264-.036.072-.24.072h-.468q-.24 0-.324-.048t-.168-.216l-.828-1.74q-.168-.36-.42-.504-.24-.156-.66-.156h-1.092v2.364q0 .168-.072.24-.06.06-.228.06h-.48q-.168 0-.24-.06-.06-.072-.06-.24V5.172q0-.168.06-.228.072-.06.24-.06h.48q.168 0 .228.06.072.06.072.228v2.244h1.056L77.926 5.1q.108-.156.204-.18a1.2 1.2 0 0 1 .36-.036h.456q.444 0 .18.336l-1.92 2.4q.576.216.96.984zm.894-4.776q.648-1.26 2.436-1.26 1.356 0 1.92.648t.564 1.776v3.132q0 .312-.096.444-.084.132-.336.24-.72.312-2.064.312-1.5 0-2.064-.456-.564-.468-.564-1.452 0-1.044.612-1.464t2.064-.42q.648 0 1.368.084v-.456q0-.696-.324-1.056-.312-.372-1.104-.372-1.044 0-1.488.732a.8.8 0 0 1-.168.18q-.06.024-.228-.036l-.372-.168q-.3-.12-.156-.408m3.84 2.472a16 16 0 0 0-1.488-.096q-.828 0-1.152.24t-.324.768q0 .516.3.768.312.24 1.152.24.912 0 1.332-.144a.26.26 0 0 0 .18-.264zm-30.744 7.12q.336 0 .204.312l-3 7.944q-.084.264-.384.264h-.492q-.312 0-.396-.252l-3-7.956q-.108-.312.216-.312h.468q.288 0 .396.06.108.048.168.216l2.088 5.76q.072.204.132.468.072.264.108.444.048.168.06.192h.048q.012-.024.048-.192.048-.18.108-.432.072-.264.144-.468l2.064-5.772q.06-.168.168-.216.12-.06.408-.06zm.219 4.452q0-1.08.708-1.692.72-.612 1.98-.612 1.284 0 1.992.612t.708 1.692v1.956q0 1.068-.708 1.68t-1.992.612q-1.26 0-1.98-.612-.708-.612-.708-1.68zm4.32-.012q0-.624-.432-.972t-1.2-.348q-.756 0-1.188.348t-.432.972v1.968q0 .624.432.972t1.188.348q.768 0 1.2-.348t.432-.972zm5.004-2.292h.384q.168 0 .228.072.06.06.06.216v.408q0 .156-.06.228-.06.06-.228.06h-.42q-.72 0-1.38.204-.168.06-.168.24v4.656q0 .168-.06.228t-.228.06h-.504q-.156 0-.216-.06-.06-.072-.06-.228v-5.04q0-.288.084-.42.096-.132.372-.252.9-.348 2.196-.372m1.106 2.304q0-1.08.708-1.692.72-.612 1.98-.612 1.284 0 1.992.612t.708 1.692v1.956q0 1.068-.708 1.68t-1.992.612q-1.26 0-1.98-.612-.708-.612-.708-1.68zm4.32-.012q0-.624-.432-.972t-1.2-.348q-.756 0-1.188.348t-.432.972v1.968q0 .624.432.972t1.188.348q.768 0 1.2-.348t.432-.972zm3.132-4.8q.168 0 .228.06t.06.228v2.52q.936-.3 1.692-.3 1.224 0 1.824.624.6.612.6 1.752v1.68q0 2.496-2.64 2.496-1.212 0-2.1-.372-.288-.132-.372-.252-.072-.12-.072-.408v-7.74q0-.156.06-.216.06-.072.216-.072zm3.324 4.92q0-1.428-1.5-1.428-.708 0-1.536.312v3.852q0 .168.168.228.528.192 1.236.192 1.632 0 1.632-1.548zm2.16.156q0-1.224.697-1.896.694-.672 2.016-.672 1.332 0 2.015.684.697.684.697 1.8v.696q0 .42-.444.42h-3.913v.576q0 .696.409 1.068.42.372 1.2.372 1.175 0 1.667-.828.108-.156.204-.18.109-.024.264.072l.325.168q.31.156.108.468-.708 1.236-2.58 1.236-1.345 0-2.005-.672t-.66-1.824zm4.356-.144q0-.72-.42-1.116t-1.224-.396q-.803 0-1.224.408-.42.396-.42 1.104v.348h3.288zm7.119-2.244q.168 0 .228.06t.06.228v6.204q0 2.592-2.592 2.592-1.74 0-2.436-1.224-.192-.3.12-.456l.348-.192q.168-.084.264-.06t.204.168q.468.804 1.488.804 1.536 0 1.536-1.584v-.648q-.924.252-1.68.252-2.436 0-2.436-2.376v-3.48q0-.168.06-.228t.228-.06h.504q.156 0 .216.072.06.06.06.216v3.444q0 1.428 1.512 1.428.72 0 1.536-.252v-4.62q0-.168.06-.228.072-.06.228-.06zm8.685 5.88q.108.312-.216.312h-.469q-.288 0-.407-.048-.108-.06-.168-.228l-.745-1.956H91.4l-.744 1.956q-.06.168-.18.228-.108.048-.395.048h-.42q-.324 0-.216-.312l3.12-7.968q.084-.264.395-.264h.48q.313 0 .397.252zm-3.528-6.024q-.217-.636-.216-1.128h-.072l-.013.168a5 5 0 0 1-.06.432 3 3 0 0 1-.132.516l-1.212 3.168h2.904zm7.06-.036h.384q.168 0 .228.072.06.06.06.216v.408q0 .156-.06.228-.06.06-.228.06h-.42q-.72 0-1.38.204-.167.06-.167.24v4.656q0 .168-.06.228t-.228.06h-.504q-.157 0-.217-.06-.06-.072-.06-.228v-5.04q0-.288.084-.42.096-.132.372-.252.9-.348 2.196-.372m2.913-1.26q.156 0 .216.06.072.06.072.228v1.152h1.572q.156 0 .216.072.06.06.06.216v.42q0 .156-.06.228-.06.06-.216.06h-1.572v2.796q0 .948.324 1.26.324.3 1.224.3.168 0 .228.06.072.06.072.228v.432q0 .156-.072.216-.06.06-.228.072-1.452.036-2.04-.504-.576-.552-.576-2.04v-2.82h-.996q-.156 0-.228-.06-.06-.072-.06-.228v-.42q0-.168.06-.228.072-.06.228-.06h.996v-1.152q0-.168.06-.228t.216-.06z"/><path stroke="#3F75FF" d="M35.5.076v25.918"/><path fill="#3F75FF" d="M10.814 18.855 0 25.995c3.396-2.593 8.94-7.321 10.814-9.504s2.59-3.88 2.694-4.547c-1.343 2.619-3.449 2.546-4.334 2.182 1.843.037 3.058-1.652 3.436-2.5-3.217 2.582-5.557 1.288-6.325.318 2.655.727 4.958-.546 5.778-1.273-4.872 1.814-7.47-.336-8.16-1.637 3 1.31 6.247 1.06 7.496.773-6.683-.11-9.187-2.956-9.603-4.365.593.4 1.73.833 2.225 1C1.241 4.66.182 1.455 0 .076 4.294 5.442 12.454 8.67 15.07 9.034s3.083.364 4.45 1.227 2.537-.181 2.888-.454c.352-.273 1.068-1.137.196-1.864s-2.733-.137-3.826.272c-.875.328-2.108.44-2.616.455 1.64-2.137 3.201-4.138 5.27-4.138 1.656 0 2.564 1.273 2.811 1.91l1.757 1-1.835.364c-1.015.819-1.327 2.546-1.913 5.138-.468 2.074-2.225 3.986-3.045 4.684 2.249-2.074 2.16-4.866 1.835-6.002-1.062 4.983-7.261 6.896-10.228 7.23m4.82 1.922c-1.592 1.048.711 2.785-.154 2.286-.866-.498-2.954-2.563-.875-2.962 2.078-.4 4.46-2.376 4.46-2.376s-1.839 2.004-3.43 3.052"/></svg>