<svg xmlns="http://www.w3.org/2000/svg" width="19" height="19" fill="none"><path fill="#0039C8" d="M9.3.18c.038-.225.362-.225.4 0l.777 4.577c.03.175.254.23.362.09l2.815-3.692c.138-.182.425-.031.354.186L12.57 5.754a.203.203 0 0 0 .28.247l4.207-1.96c.207-.097.392.17.228.33L13.959 7.61a.203.203 0 0 0 .132.348l4.636.22c.229.01.268.332.049.398l-4.45 1.322a.203.203 0 0 0-.045.37l4.004 2.35c.197.115.082.418-.142.374l-4.555-.897a.203.203 0 0 0-.211.307l2.453 3.94c.12.195-.122.41-.3.267l-3.616-2.91a.203.203 0 0 0-.33.172l.34 4.63c.018.228-.297.306-.388.096l-1.85-4.258a.203.203 0 0 0-.372 0l-1.85 4.258c-.09.21-.406.132-.389-.096l.341-4.63a.203.203 0 0 0-.33-.173l-3.616 2.91c-.178.144-.42-.07-.3-.265l2.453-3.94a.203.203 0 0 0-.211-.308l-4.555.897c-.224.044-.34-.259-.142-.375l4.004-2.349a.203.203 0 0 0-.045-.37L.224 8.576c-.22-.066-.18-.387.049-.398l4.636-.22a.203.203 0 0 0 .132-.348L1.716 4.37c-.164-.159.02-.426.228-.329l4.208 1.96a.203.203 0 0 0 .279-.247L4.99 1.341c-.07-.217.217-.368.355-.186l2.815 3.691a.203.203 0 0 0 .362-.09z"/></svg>