<svg xmlns="http://www.w3.org/2000/svg" width="596" height="564" fill="none"><path fill="#0039C8" fill-opacity=".17" d="M591.841 230.876c6.13-8.652 4.085-20.635-4.567-26.765s-20.635-4.085-26.765 4.567zM258.233 534.243l7.015 17.873zm-51.052-178.36 12.203 14.823zm201.675-196.064 14.188 12.935q.428-.47.824-.966zM.56 189.978c-.875 10.568 6.982 19.844 17.55 20.719l172.205 14.264c10.567.875 19.843-6.982 20.718-17.549.876-10.568-6.981-19.844-17.549-20.719l-153.07-12.679L53.091 20.943c.876-10.567-6.98-19.844-17.548-20.719S15.7 7.206 14.824 17.774zm559.949 18.7c-30.611 43.206-83.192 110.776-141.044 172.528-58.584 62.532-119.969 116.216-168.247 135.165l14.03 35.745c57.162-22.437 123.724-82.197 182.239-144.657 59.247-63.24 112.917-132.211 144.354-176.583zM251.218 516.371c-30.187 11.849-49.767 10.43-61.431 5.039-11.194-5.175-19.054-15.852-22.091-32.106-6.303-33.727 10.31-84.534 51.688-118.598l-24.406-29.646c-50.513 41.585-74.273 105.825-65.027 155.298 4.736 25.347 18.632 48.309 43.725 59.907 24.622 11.381 55.86 9.868 91.572-4.149zm-31.834-145.665c74.591-61.407 166.893-157.625 203.66-197.952l-28.376-25.871c-36.422 39.95-127.254 134.545-199.69 194.177zm204.484-198.918c10.918-13.692 22.182-30.505 30.324-47.756 7.876-16.688 14.119-36.463 11.492-55.017-1.38-9.74-5.241-19.291-12.585-27.352-7.273-7.984-16.954-13.405-28.239-16.662-21.893-6.32-52.264-5.215-92.294 3.295l7.986 37.56c38.091-8.099 60.943-7.633 73.659-3.963 6.021 1.738 8.991 3.97 10.502 5.629 1.441 1.581 2.496 3.663 2.951 6.878 1.042 7.356-1.373 18.781-8.198 33.244-6.56 13.899-16.038 28.187-25.621 40.205zM332.566 28.296C172.896 62.243 49.961 140.766 7.286 176.913l24.817 29.3C70.47 173.716 187.74 98.344 340.552 65.856z"/></svg>