<svg width="58" height="37" viewBox="0 0 58 37" fill="none" xmlns="http://www.w3.org/2000/svg">
<path d="M3 16C1.61929 16 0.5 17.1193 0.5 18.5C0.5 19.8807 1.61929 21 3 21V16ZM57.2678 20.2678C58.2441 19.2915 58.2441 17.7085 57.2678 16.7322L41.3579 0.82233C40.3816 -0.15398 38.7986 -0.15398 37.8223 0.82233C36.846 1.79864 36.846 3.38155 37.8223 4.35786L51.9645 18.5L37.8223 32.6421C36.846 33.6184 36.846 35.2014 37.8223 36.1777C38.7986 37.154 40.3816 37.154 41.3579 36.1777L57.2678 20.2678ZM3 21H55.5V16H3V21Z" fill="#0039C8"/>
</svg>
