<svg xmlns="http://www.w3.org/2000/svg" width="732" height="717" fill="none"><g opacity=".1"><path stroke="#0039C8" stroke-linecap="round" stroke-linejoin="round" stroke-width="29.593" d="m272.526 316.738 52.307-93.958M252.651 243.335l93.957 52.307M496.755 450.542l52.307-93.957M476.88 377.14l93.957 52.307"/><path fill="#0039C8" d="M393.104 527.184c.731 5.413 5.711 9.208 11.124 8.478s9.209-5.711 8.478-11.124zM550.42 105.985c-.556-5.434-5.412-9.388-10.845-8.832l-88.547 9.06c-5.434.556-9.388 5.412-8.832 10.845s5.412 9.388 10.845 8.832l78.709-8.053 8.053 78.708c.556 5.434 5.412 9.388 10.845 8.832s9.388-5.412 8.832-10.845zM412.706 524.538c-11.145-82.565-15.878-136.832.916-194.428 16.853-57.8 55.715-119.971 134.628-216.874l-15.337-12.49c-79.129 97.168-120.239 161.951-138.28 223.828-18.102 62.081-12.651 120.214-1.529 202.61zM337.381 557.298c3.819 3.905 10.081 3.973 13.985.154s3.973-10.082.154-13.986zM192.299 122.5c-3.692-4.026-9.948-4.296-13.974-.604l-65.596 60.164c-4.026 3.692-4.296 9.948-.604 13.973s9.948 4.296 13.973.604l58.309-53.479 53.479 58.308c3.691 4.026 9.948 4.296 13.973.604s4.296-9.948.604-13.973zM351.52 543.466c-58.521-59.819-99.676-101.335-125.476-158.598-25.72-57.085-36.53-130.808-31.153-255.257l-19.761-.853c-5.427 125.598 5.281 202.981 32.88 264.236 27.519 61.077 71.486 105.136 129.371 164.304z"/><circle cx="394.242" cy="602.448" r="42.575" fill="#0039C8" stroke="#0039C8" stroke-width="1.978" transform="rotate(-15.895 394.242 602.448)"/><circle cx="585.562" cy="53.831" r="42.575" fill="#0039C8" stroke="#0039C8" stroke-width="1.978" transform="rotate(-15.895 585.562 53.83)"/></g></svg>