<svg xmlns="http://www.w3.org/2000/svg" width="20" height="17" fill="none"><path fill="#fff" d="M.268 7.883c.161-.344.46-.526.787-.656 1.293-.52 2.596-1.031 3.888-1.542L18.278.42c.106-.041.217-.078.323-.094.596-.088 1.02.282 1 .933-.01.422-.101.849-.187 1.266q-1.372 6.655-2.752 13.302a2.7 2.7 0 0 1-.222.657c-.197.395-.54.547-.954.416a2 2 0 0 1-.576-.28c-1.388-1.037-2.767-2.084-4.145-3.126a4 4 0 0 0-.182-.13c-.056.052-.106.093-.156.14q-1.062 1.04-2.116 2.089c-.207.208-.45.328-.773.323.02-.281.036-.557.056-.833.086-1.22.167-2.438.257-3.652a.44.44 0 0 1 .127-.26q4.015-3.728 8.038-7.454c.02-.015.045-.03.056-.052.05-.094.095-.193.146-.291-.116-.021-.237-.084-.343-.063-.132.026-.258.104-.374.177Q10.496 6.715 5.499 9.935a.36.36 0 0 1-.273.047c-1.419-.448-2.833-.906-4.252-1.36C.687 8.53.424 8.4.268 8.119z"/></svg>