<svg xmlns="http://www.w3.org/2000/svg" width="33" height="34" fill="none"><path fill="#fff" d="M16.5.184C7.402.184 0 7.562 0 16.63c0 9.07 7.402 16.449 16.5 16.449 9.099 0 16.5-7.38 16.5-16.448C33 7.561 25.599.183 16.5.183m7.154 19.69c1.605 1.42 1.939 1.928 1.994 2.014.665 1.052-.738 1.18-.738 1.18h-2.956s-.72.008-1.334-.399c-1.002-.654-2.052-1.923-2.79-1.702-.618.184-.613 1.018-.613 1.731 0 .255-.22.37-.717.37h-.924c-1.62 0-3.376-.544-5.129-2.37-2.479-2.58-4.653-7.78-4.653-7.78s-.129-.261.011-.42c.159-.18.59-.156.59-.156l2.866-.001s.27.05.463.186c.16.112.25.325.25.325s.48 1.585 1.094 2.595c1.198 1.973 1.755 2.023 2.162 1.81.594-.307.4-2.404.4-2.404s.027-.9-.283-1.301c-.239-.31-.696-.476-.895-.502-.162-.02.108-.302.452-.463.459-.204 1.084-.256 2.161-.246.839.008 1.08.058 1.408.133.989.227.744.827.744 2.934 0 .675-.093 1.624.418 1.939.22.136.975.301 2.318-1.873.638-1.03 1.145-2.741 1.145-2.741s.105-.188.267-.281c.167-.095.162-.093.39-.093s2.516-.018 3.018-.018.972-.006 1.053.287c.116.422-.37 1.865-1.603 3.43-2.025 2.57-2.25 2.33-.569 3.817"/></svg>