<svg xmlns="http://www.w3.org/2000/svg" width="25" height="25" fill="none"><path fill="#2787F5" d="M.043 11.793C.04 6.26.037 3.493 1.755 1.772S6.24.049 11.774.045l1.02-.001C18.33.039 21.097.037 22.817 1.755s1.723 4.485 1.727 10.02l.001 1.02c.005 5.534.007 8.301-1.711 10.022-1.718 1.72-4.485 1.722-10.02 1.727h-1.02c-5.534.005-8.301.007-10.022-1.71C.051 21.114.05 18.347.044 12.813z"/><path fill="#fff" fill-rule="evenodd" d="m6.675 7.704-1.787.002c-.51 0-.612.24-.612.505 0 .473.608 2.82 2.825 5.922 1.478 2.119 3.56 3.266 5.453 3.265 1.136-.001 1.276-.257 1.275-.696V15.1c-.001-.51.106-.613.466-.613.265 0 .72.132 1.78 1.153 1.213 1.21 1.413 1.754 2.095 1.753l1.786-.001c.51 0 .766-.256.618-.76-.161-.502-.74-1.23-1.509-2.092-.416-.492-1.042-1.021-1.231-1.286-.265-.34-.19-.492 0-.795 0 0 2.174-3.068 2.4-4.109.114-.378 0-.656-.54-.656l-1.787.001c-.455 0-.664.241-.777.506 0 0-.907 2.215-2.193 3.655-.417.416-.606.55-.833.55-.114 0-.278-.133-.278-.511l-.003-3.54c0-.454-.133-.656-.511-.656l-2.808.002c-.284 0-.455.211-.454.411 0 .43.643.53.71 1.74l.003 2.631c0 .577-.104.682-.331.682-.606 0-2.081-2.222-2.957-4.767-.171-.494-.343-.694-.8-.694" clip-rule="evenodd"/></svg>