<svg xmlns="http://www.w3.org/2000/svg" width="219" height="217" fill="none"><path fill="#BFDDFF" d="M.406 179.516c-.406 4.018 2.474 7.559 6.434 7.908s7.499-2.623 7.905-6.641zM51.173 22.819l-5.597-4.513zM97.97 70.542l-6.73-2.504zm-28.247 98.711-7.027-1.509a7 7 0 0 0-.09.47zm121.316-83.114c-1.673-3.633-5.958-5.158-9.569-3.406l-58.855 28.544c-3.612 1.752-5.183 6.117-3.51 9.75s5.958 5.158 9.57 3.406L180.99 99.06l24.237 52.623c1.674 3.633 5.958 5.158 9.57 3.406 3.611-1.751 5.183-6.116 3.509-9.749zM14.745 180.783c1.948-19.265 6.45-50.238 13.593-80.299 3.57-15.027 7.771-29.703 12.594-42.517C45.789 45.06 51.117 34.48 56.77 27.33l-11.194-9.025c-7.045 8.909-13.022 21.141-18.103 34.641-5.115 13.593-9.486 28.918-13.146 44.327-7.32 30.81-11.919 62.444-13.921 82.242zM56.77 27.331C64 18.19 70.17 15.262 74.494 14.907c4.148-.34 8.346 1.548 12.106 6.18 7.794 9.602 11.474 28.746 4.638 46.95l13.463 5.01c8.414-22.408 4.569-47.197-6.912-61.34C91.912 4.466 83.536-.47 73.55.35c-9.808.806-19.33 7.027-27.973 17.956zm34.468 40.707c-12.386 32.986-24.19 80.246-28.543 99.706l14.055 3.019c4.311-19.273 15.937-65.723 27.951-97.716zM62.605 168.214c-.995 6.338-1.555 13.733-1.07 20.708.467 6.744 1.977 14.191 6.033 19.66 2.13 2.872 5.017 5.265 8.768 6.545 3.725 1.272 7.759 1.262 11.9.255 8.01-1.947 17.293-7.828 28.205-17.74l-9.53-10.807c-10.35 9.401-17.407 13.272-21.833 14.348-2.076.505-3.284.324-3.951.096-.641-.219-1.296-.654-1.987-1.585-1.584-2.135-2.823-6.192-3.227-12.02-.388-5.597.056-11.841.927-17.381zm53.836 29.428c43.524-39.536 67.904-86.699 74.824-105.923l-13.533-4.817c-6.195 17.208-29.305 62.22-70.821 99.933z"/></svg>