<svg width="596" height="564" viewBox="0 0 596 564" fill="none" xmlns="http://www.w3.org/2000/svg">
<path d="M591.841 230.876C597.971 222.224 595.926 210.241 587.274 204.111C578.622 197.981 566.639 200.026 560.509 208.678L591.841 230.876ZM258.233 534.243L265.248 552.116L258.233 534.243ZM207.181 355.883L219.384 370.706L207.181 355.883ZM408.856 159.819L423.044 172.754C423.329 172.441 423.604 172.119 423.868 171.788L408.856 159.819ZM0.560489 189.978C-0.314769 200.546 7.54217 209.822 18.1095 210.697L190.315 224.961C200.882 225.836 210.158 217.979 211.033 207.412C211.909 196.844 204.052 187.568 193.484 186.693L40.4132 174.014L53.0921 20.9429C53.9674 10.3755 46.1105 1.09944 35.5431 0.224148C24.9757 -0.651145 15.6996 7.20583 14.8243 17.7732L0.560489 189.978ZM560.509 208.678C529.898 251.884 477.317 319.454 419.465 381.206C360.881 443.738 299.496 497.422 251.218 516.371L265.248 552.116C322.41 529.679 388.972 469.919 447.487 407.459C506.734 344.219 560.404 275.248 591.841 230.876L560.509 208.678ZM251.218 516.371C221.031 528.22 201.451 526.801 189.787 521.41C178.593 516.235 170.733 505.558 167.696 489.304C161.393 455.577 178.006 404.77 219.384 370.706L194.978 341.06C144.465 382.645 120.705 446.885 129.951 496.358C134.687 521.705 148.583 544.667 173.676 556.265C198.298 567.646 229.536 566.133 265.248 552.116L251.218 516.371ZM219.384 370.706C293.975 309.299 386.277 213.081 423.044 172.754L394.668 146.883C358.246 186.833 267.414 281.428 194.978 341.06L219.384 370.706ZM423.868 171.788C434.786 158.096 446.05 141.283 454.192 124.032C462.068 107.344 468.311 87.5686 465.684 69.0154C464.304 59.2749 460.443 49.7239 453.099 41.6627C445.826 33.6785 436.145 28.258 424.86 25.0007C402.967 18.6808 372.596 19.7856 332.566 28.2961L340.552 65.8555C378.643 57.7571 401.495 58.2226 414.211 61.8932C420.232 63.6311 423.202 65.8633 424.713 67.5217C426.154 69.1033 427.209 71.1849 427.664 74.3996C428.706 81.7565 426.291 93.1815 419.466 107.644C412.906 121.543 403.428 135.831 393.845 147.849L423.868 171.788ZM332.566 28.2961C172.896 62.2428 49.9606 140.766 7.28538 176.913L32.1034 206.213C70.4701 173.716 187.739 98.3443 340.552 65.8555L332.566 28.2961Z" fill="#0039C8" fill-opacity="0.17"/>
</svg>
