<svg xmlns="http://www.w3.org/2000/svg" width="356" height="336" fill="none"><path fill="#ABABAB" d="M1.279 234.368c-2.594 5.661-.108 12.351 5.551 14.943 5.66 2.592 12.35.104 14.944-5.557zM160.245 23.334l-5.997-9.543zm48.356 97.453-8.66-7.213zM113.902 255.66l-9.598-5.91q-.195.317-.368.646zm231.013-61.389c-.65-6.192-6.197-10.682-12.388-10.03l-100.899 10.634c-6.191.653-10.683 6.201-10.033 12.393.651 6.191 6.197 10.681 12.389 10.029l89.688-9.453 9.423 89.686c.651 6.192 6.198 10.682 12.389 10.03 6.192-.653 10.684-6.201 10.033-12.393zm-323.14 49.483C34.71 215.52 57.64 170.86 84.217 128.99c26.914-42.403 56.377-79.988 82.025-96.113l-11.995-19.086c-30.399 19.111-62.186 60.776-89.064 103.121-27.215 42.878-50.62 88.463-63.903 117.456zM166.242 32.877c16.036-10.082 27.379-11.35 34.594-9.506 6.927 1.77 12.577 7.063 16.065 16.138 7.234 18.818 3.124 49.953-16.961 74.065l17.32 14.427c24.526-29.443 31.268-69.057 20.686-96.587-5.42-14.1-15.845-25.882-31.523-29.887-15.39-3.932-33.183.324-52.176 12.264zm33.698 80.697c-36.214 43.472-78.863 108.943-95.637 136.176l19.195 11.82c16.618-26.979 58.596-91.354 93.762-133.569zm-96.005 136.822c-4.798 9.077-9.459 19.991-12.282 30.819-2.731 10.477-4.193 22.547-.708 32.955 1.83 5.462 5.062 10.561 10.145 14.43 5.038 3.836 11.19 5.93 18.033 6.598 13.268 1.294 30.595-2.623 52.647-11.845l-8.693-20.8c-20.977 8.772-34.107 10.952-41.757 10.206-3.617-.353-5.539-1.314-6.57-2.099-.987-.751-1.818-1.838-2.426-3.655-1.391-4.152-1.223-11.023 1.145-20.108 2.277-8.733 6.187-18.004 10.398-25.972zm67.835 72.957c87.965-36.787 150.083-95.351 170.694-120.809l-17.521-14.184c-18.528 22.885-77.716 79.002-161.866 114.193z" opacity=".1"/></svg>