<svg xmlns="http://www.w3.org/2000/svg" width="33" height="34" fill="none"><path fill="#fff" d="M16.5.184C25.613.184 33 7.548 33 16.63c0 9.084-7.387 16.449-16.5 16.449S0 25.715 0 16.632 7.388.183 16.5.183m5.692 23.152c.303-.927 1.726-10.179 1.9-12.002.053-.552-.122-.919-.464-1.083-.415-.199-1.028-.1-1.741.157-.978.35-13.469 5.637-14.19 5.944-.684.29-1.332.605-1.332 1.064 0 .322.192.503.72.69.55.196 1.933.614 2.751.839.788.216 1.682.028 2.185-.283.532-.33 6.676-4.427 7.116-4.786.44-.36.792.1.432.46s-4.576 4.439-5.133 5.004c-.676.686-.197 1.397.257 1.682.517.325 4.237 2.812 4.797 3.21.56.4 1.128.58 1.649.58.52 0 .794-.683 1.053-1.476"/></svg>