<svg xmlns="http://www.w3.org/2000/svg" width="33" height="34" fill="none"><ellipse cx="16.5" cy="16.631" fill="#fff" rx="16.5" ry="16.448"/><path fill="#0039C8" d="M26.649 11.773c-.19-1.018-1.1-1.758-2.154-1.99-1.577-.323-4.497-.554-7.656-.554-3.157 0-6.123.23-7.703.554-1.052.232-1.963.926-2.153 1.99A29.4 29.4 0 0 0 6.6 16.63c0 2.082.19 3.7.43 4.857.192 1.018 1.1 1.759 2.153 1.99 1.675.323 4.546.555 7.705.555s6.03-.232 7.705-.555c1.052-.231 1.96-.925 2.153-1.99.19-1.156.43-2.822.479-4.857-.098-2.082-.337-3.7-.576-4.857m-12.393 8.095v-6.476l5.837 3.238z"/></svg>